# xmcd
#
# Track frame offsets: 
#        150
#        6994
#        18806
#        35791
#        53054
#        65561
#        74832
#        85152
#        96848
#        111007
#        122593
#
# Disc length: 1809 seconds
#
# Revision: 0
# Processed by: cddbd v1.5.2PL0 Copyright (c) Steve Scherf et al.
# Submitted via: ExactAudioCopy v0.99pb4
#
DISCID=93070f0b
DTITLE=Campbell, Archie - The Many Talents of
DYEAR=2008
DGENRE=Country
TTITLE0=The Boy From Alabama
TTITLE1=British Safari
TTITLE2=Jack And Jill
TTITLE3=The Water CLoset
TTITLE4=Bull's Gap Newspaper
TTITLE5=That's Good - That's Bad
TTITLE6=Grab A Little Sunshine
TTITLE7=There's A World Full Of Women
TTITLE8=Sergeant York
TTITLE9=Sidewalk Waltz
TTITLE10=The Master's Hand
EXTD=
EXTT0=
EXTT1=
EXTT2=
EXTT3=
EXTT4=
EXTT5=
EXTT6=
EXTT7=
EXTT8=
EXTT9=
EXTT10=
PLAYORDER=
